Patient4_TMGait_0pt7_01_right_28_GRF.mot
version=1
nRows=32
nColumns=19
inDegrees=no
endheader
time	F1x	F1y	F1z	M1x	M1y	M1z	F2x	F2y	F2z	M2x	M2y	M2z	EC1x	EC1y	EC1z	EC2x	EC2y	EC2z
31.7	14.7597	735.78	66.664	-266.8389	-60.0088	695.4539	12.1109	14.0501	5.3092	0.83945	-0.78198	3.3148	-0.0592	0.0182	-0.0073	-0.0462	0.0165	0.9585
31.7116	14.6863	741.0253	64.3086	-268.7395	-56.5387	697.4597	7.8287	10.4513	3.5387	0.96164	-0.37095	3.4338	-0.0592	0.0182	-0.0073	-0.0462	0.0165	0.9585
31.7233	15.0589	746.9638	62.2265	-270.7637	-53.1949	699.4785	4.2754	7.4545	2.0471	1.0761	-0.03911	3.5852	-0.0592	0.0182	-0.0073	-0.0462	0.0165	0.9585
31.7349	15.9093	752.8436	60.5502	-272.6219	-50.1536	700.9289	1.5957	5.2522	0.92636	1.185	0.19888	3.8024	-0.0592	0.0182	-0.0073	-0.0462	0.0165	0.9585
31.7466	17.2517	757.859	59.3191	-274.0273	-47.4734	701.1582	-0.22556	3.7898	0.15777	1.2765	0.35554	4.0171	-0.0592	0.0182	-0.0073	-0.0462	0.0165	0.9585
31.7582	19.1351	761.2983	58.4844	-274.7464	-45.1025	699.5826	-1.3528	2.9688	-0.30788	1.3533	0.44964	4.2476	-0.0592	0.0182	-0.0073	-0.0462	0.0165	0.9585
31.7699	21.6002	762.6899	57.9641	-274.6459	-42.9492	695.8327	-1.9474	2.5661	-0.55731	1.3959	0.50738	4.3969	-0.0592	0.0182	-0.0073	-0.0462	0.0165	0.9585
31.7815	24.6338	761.8739	57.6821	-273.708	-40.9358	689.8048	-2.2029	2.3875	-0.66369	1.3909	0.55286	4.4335	-0.0592	0.0182	-0.0073	-0.0462	0.0165	0.9585
31.7931	28.2112	758.9645	57.5583	-272.0143	-38.9803	681.6642	-2.2369	2.1944	-0.70423	1.303	0.61164	4.2112	-0.0592	0.0182	-0.0073	-0.0462	0.0165	0.9585
31.8048	32.3009	754.3888	57.5523	-269.7454	-37.0415	671.8639	-2.1764	1.7886	-0.72493	1.0944	0.6968	3.6176	-0.0592	0.0182	-0.0073	-0.0462	0.0165	0.9585
31.8164	36.8467	748.7405	57.6271	-267.1332	-35.0864	660.9971	-2.0489	0.97532	-0.76098	0.71627	0.80676	2.5002	-0.0592	0.0182	-0.0073	-0.0462	0.0165	0.9585
31.8281	41.8005	742.7771	57.8066	-264.4481	-33.1358	649.8235	-1.9012	-0.38279	-0.81696	0.12894	0.92725	0.76062	-0.0592	0.0182	-0.0073	-0.0462	0.0165	0.9585
31.8397	47.0836	737.2633	58.1328	-261.95	-31.2293	639.0958	-1.6924	-2.3777	-0.88775	-0.69209	1.0234	-1.6909	-0.0592	0.0182	-0.0073	-0.0462	0.0165	0.9585
31.8514	52.5641	732.8251	58.6995	-259.8356	-29.469	629.4537	-1.3944	-4.9566	-0.94083	-1.7235	1.0372	-4.774	-0.0592	0.0182	-0.0073	-0.0462	0.0165	0.9585
31.863	58.0935	729.9091	59.6107	-258.2281	-27.9774	621.3858	-0.91985	-7.9019	-0.93189	-2.8771	0.8866	-8.2501	-0.0592	0.0182	-0.0073	-0.0462	0.0165	0.9585
31.8746	63.4464	728.7461	60.9701	-257.1723	-26.9058	615.2099	-0.21157	-10.6988	-0.79097	-3.9514	0.46805	-11.5248	-0.0592	0.0182	-0.0073	-0.0462	0.0165	0.9585
31.8863	68.3467	729.3806	62.831	-256.6497	-26.3831	611.0632	0.83456	-12.4551	-0.42714	-4.5986	-0.34925	-13.6005	-0.0592	0.0182	-0.0073	-0.0462	0.0165	0.9585
31.8979	72.4893	731.5973	65.1798	-256.5585	-26.5007	608.8804	2.2427	-11.796	0.26597	-4.2845	-1.6859	-12.9136	-0.0592	0.0182	-0.0073	-0.0462	0.0165	0.9585
31.9096	75.5727	734.8266	67.9281	-256.6886	-27.2956	608.2606	4.0064	-6.8116	1.3859	-2.2686	-3.6299	-7.3032	-0.0592	0.0182	-0.0073	-0.0462	0.0165	0.9585
31.9212	77.3795	738.1031	70.8773	-256.7099	-28.698	608.4532	5.9656	4.9328	3.0053	2.3867	-6.183	6.0141	-0.0592	0.0182	-0.0073	-0.0462	0.0165	0.9585
31.9329	77.8639	740.1259	73.7365	-256.1973	-30.5228	608.3881	7.7942	26.1414	5.1271	10.7226	-9.2039	30.1018	-0.0592	0.0182	-0.0073	-0.0462	0.0165	0.9585
31.9445	77.1101	739.3956	76.0868	-254.6815	-32.4297	606.7787	8.9014	59.4025	7.6149	23.7206	-12.2886	67.9034	-0.0592	0.0182	-0.0073	-0.0462	0.0165	0.9585
31.9561	75.3781	734.3085	77.4949	-251.6835	-34.0105	602.2039	8.3738	106.2926	10.129	41.9667	-14.6807	121.1977	-0.0592	0.0182	-0.0073	-0.0462	0.0165	0.9585
31.9678	72.9813	723.3489	77.4905	-246.771	-34.7874	593.2829	4.941	166.2671	12.0138	65.2011	-15.1419	189.3757	-0.0592	0.0182	-0.0073	-0.0462	0.0165	0.9585
31.9794	70.241	705.1814	75.7301	-239.5803	-34.3797	578.7386	-2.5982	235.2531	12.3128	91.7851	-12.1546	267.8114	-0.0592	0.0182	-0.0073	-0.0462	0.0165	0.9585
31.9911	67.3884	678.8783	71.9928	-229.8757	-32.5196	557.635	-13.9261	305.1559	9.963	118.5272	-4.7007	347.2473	-0.0592	0.0182	-0.0073	-0.0462	0.0165	0.9585
32.0027	64.5289	643.954	66.3505	-217.5489	-29.2216	529.3888	-26.2977	366.8905	4.1817	141.9232	6.8961	417.0706	-0.0592	0.0182	-0.0073	-0.0462	0.0165	0.9585
32.0144	61.5071	600.4908	59.1277	-202.6268	-24.7717	493.9774	-37.3039	416.3236	-3.9014	160.3986	20.406	472.2516	-0.0592	0.0182	-0.0073	-0.0462	0.0165	0.9585
32.026	58.0184	548.988	50.9101	-185.229	-19.7145	451.7999	-45.3911	453.6981	-13.2439	174.1012	34.0517	512.7777	-0.0592	0.0182	-0.0073	-0.0462	0.0165	0.9585
32.0376	53.7674	490.5732	42.3923	-165.6527	-14.6739	403.8335	-49.8998	481.797	-22.835	184.1821	46.4231	541.7462	-0.0592	0.0182	-0.0073	-0.0462	0.0165	0.9585
32.0493	48.501	427.088	34.1205	-144.4313	-10.1375	351.6493	-50.7987	504.3859	-31.4403	192.1781	56.1943	563.4178	-0.0592	0.0182	-0.0073	-0.0462	0.0165	0.9585
32.0609	42.0677	360.9482	26.5563	-122.3038	-6.5112	297.2915	-48.6272	524.5182	-38.5353	199.3302	62.9665	581.3678	-0.0592	0.0182	-0.0073	-0.0462	0.0165	0.9585
